/* XPM */
static char * AppIcon_xpm[] = {
"44 28 194 2",
"  	c None",
". 	c #000000",
"+ 	c #05B316",
"@ 	c #05B317",
"# 	c #05B417",
"$ 	c #05B517",
"% 	c #04B518",
"& 	c #04B618",
"* 	c #04B718",
"= 	c #04B819",
"- 	c #04B919",
"; 	c #04BA19",
"> 	c #04BB1A",
", 	c #04BC1A",
"' 	c #04BD1B",
") 	c #03BE1B",
"! 	c #03BF1B",
"~ 	c #03C01C",
"{ 	c #03C11C",
"] 	c #03C21C",
"^ 	c #03C21D",
"/ 	c #03C31D",
"( 	c #03C41D",
"_ 	c #03C41E",
": 	c #03C51E",
"< 	c #03C61E",
"[ 	c #02C61E",
"} 	c #02C71F",
"| 	c #02C81F",
"1 	c #02C91F",
"2 	c #02CA20",
"3 	c #02CB20",
"4 	c #02CC21",
"5 	c #02CD21",
"6 	c #02CE21",
"7 	c #02CF22",
"8 	c #01CF22",
"9 	c #01D022",
"0 	c #01D122",
"a 	c #9E9E9E",
"b 	c #01D123",
"c 	c #01D223",
"d 	c #01D323",
"e 	c #01D324",
"f 	c #01D424",
"g 	c #01D524",
"h 	c #01D625",
"i 	c #01D725",
"j 	c #00D725",
"k 	c #00D825",
"l 	c #00D926",
"m 	c #00DA26",
"n 	c #00DB27",
"o 	c #00DC27",
"p 	c #00DD27",
"q 	c #00DD28",
"r 	c #00DE28",
"s 	c #00DF28",
"t 	c #018816",
"u 	c #001703",
"v 	c #00470C",
"w 	c #008E18",
"x 	c #00A91D",
"y 	c #00490D",
"z 	c #006211",
"A 	c #00BA1E",
"B 	c #005D0F",
"C 	c #005E0F",
"D 	c #008C18",
"E 	c #008D18",
"F 	c #002F08",
"G 	c #008F18",
"H 	c #001804",
"I 	c #003008",
"J 	c #00C121",
"K 	c #00921A",
"L 	c #00931A",
"M 	c #00C523",
"N 	c #006311",
"O 	c #003108",
"P 	c #009019",
"Q 	c #00480C",
"R 	c #005F10",
"S 	c #00AA1D",
"T 	c #00AA1E",
"U 	c #007B15",
"V 	c #004A0D",
"W 	c #001904",
"X 	c #007915",
"Y 	c #00C221",
"Z 	c #00A71C",
"` 	c #007614",
" .	c #007514",
"..	c #00DF29",
"+.	c #006111",
"@.	c #00BA1F",
"#.	c #007412",
"$.	c #00941A",
"%.	c #00C422",
"&.	c #007814",
"*.	c #002E07",
"=.	c #00A81C",
"-.	c #00440B",
";.	c #00590D",
">.	c #01B11B",
",.	c #00B81E",
"'.	c #01B21B",
").	c #016F11",
"!.	c #014109",
"~.	c #008C17",
"{.	c #00A31A",
"].	c #001603",
"^.	c #00430A",
"/.	c #028214",
"(.	c #028213",
"_.	c #001503",
":.	c #013F09",
"<.	c #04BE1B",
"[.	c #018614",
"}.	c #00420A",
"|.	c #01570C",
"1.	c #01550C",
"2.	c #013D08",
"3.	c #002C06",
"4.	c #01560C",
"5.	c #02AB18",
"6.	c #02AA18",
"7.	c #027E12",
"8.	c #013E08",
"9.	c #038E12",
"0.	c #03780F",
"a.	c #05B216",
"b.	c #05B116",
"c.	c #03A617",
"d.	c #02660D",
"e.	c #012805",
"f.	c #02630C",
"g.	c #03740E",
"h.	c #05AF15",
"i.	c #05AE15",
"j.	c #05AD14",
"k.	c #06AC14",
"l.	c #028012",
"m.	c #027F12",
"n.	c #027D11",
"o.	c #027C11",
"p.	c #027B10",
"q.	c #027A10",
"r.	c #03A215",
"s.	c #027810",
"t.	c #049F14",
"u.	c #03760E",
"v.	c #038910",
"w.	c #03870F",
"x.	c #03730D",
"y.	c #04720D",
"z.	c #04720C",
"A.	c #059710",
"B.	c #06AA13",
"C.	c #06A913",
"D.	c #06A812",
"E.	c #06A712",
"F.	c #05B015",
"G.	c #06AB13",
"H.	c #06A612",
"I.	c #06A611",
"J.	c #06A511",
"K.	c #06A411",
"L.	c #07A410",
"M.	c #07A310",
"N.	c #07A210",
"O.	c #07A10F",
"P.	c #07A00F",
"Q.	c #079F0F",
"R.	c #079E0E",
"S.	c #079D0E",
"T.	c #079C0D",
"U.	c #089B0D",
"V.	c #089A0D",
"W.	c #08990C",
"X.	c #08980C",
"Y.	c #08970C",
"Z.	c #08970B",
"`.	c #08960B",
" +	c #08950B",
".+	c #08950A",
"++	c #08940A",
"@+	c #08930A",
"#+	c #09930A",
"$+	c #099209",
"%+	c #099109",
"&+	c #099009",
"*+	c #098F08",
"=+	c #727272",
". . . . . . . . . . . . . . . . . . . . . . . . . . . . . . . . . . . . . . . .         ",
". + @ # $ % & * * = - - ; > > , ' ) ) ! ~ ~ { ] ^ / ( _ : < [ } | | 1 2 2 3 4 . .       ",
". * = - - ; > > , ' ) ) ! ~ ~ { ] ^ / ( _ : < [ } | | 1 2 2 3 4 4 5 6 7 8 9 0 . a .     ",
". , ' ) ) ! ~ ~ { ] ^ / ( _ : < [ } | | 1 2 2 3 4 4 5 6 7 8 9 0 b c d e f g g . a a .   ",
". { ] ^ / ( _ : < [ } | | 1 2 2 3 4 4 5 6 7 8 9 0 b c d e f g g h i j k l l m . a a a . ",
". < [ } | | 1 2 2 3 4 4 5 6 7 8 9 0 b c d e f g g h i j k l l m n n o p q r s . a a a . ",
". 2 3 t . . . . . . . u c u . . v g w . . . l x . . . y p z . . . . . . . o n . a a a . ",
". 8 9 A B . C D E w F v i G H I J m K . y L q M N . N M q y O K H H P I Q j i . a a a . ",
". f g g R . j k l l S T n o U . M s V W r q p o X . Y l l Q Z i . v g `  .d c . a a a . ",
". l l m y H o p q r s ..s r q W z +.H Y l l k j v . g g f e d @.. #.9 8 8 6 5 . a a a . ",
". q r s W O $.L %.o n n m l l &.H . Z g g f e d *.*.0 9 8 8 6 t . t 3 2 2 1 | . a a a . ",
". p o n . . . . =.j i h g g f D . B b 0 9 8 8 6 . -.4 3 2 2 1 ;.. >.[ < : _ ( . a a a . ",
". k j G . w g f e d c b 0 9 ,.u *.u 4 4 3 2 2 '.. ).} [ < : _ !.. ^ ] { ~ ~ ! . a a a . ",
". e d ~.. {.9 8 8 6 5 4 4 3 ].^.'.. ).} [ < : /.. (.^ ] { ~ ~ _.:.<.' , > > ; . a a a . ",
". 8 6 -.. 4 3 2 2 [.'.| } }.].: _ |.].^ ] { ~ 1.. ) <.' , > > . 2.- = * * & % . a a a . ",
". 2 1 3.].} [ < : . (./ 4.].5.~ ~ 6.. 7.' , > 8.. - - = * * 9.. 0.# @ + a.b.b.. a a a . ",
". : . . . . . . . . ! . . . 8.> c.. . . d.* . . . e.# @ + f.. . . g.h.i.j.j.k.. a a a . ",
". ~ l.m.7.7.7.n.o.o.; p.p.q.9.* r.s.0.0.t.+ u.u.u.v.h.h.i.w.x.y.z.A.B.C.D.D.E.. a a a . ",
". > > ; - - = * * & % $ # @ + a.b.b.F.h.h.i.j.j.k.G.B.B.C.D.D.E.H.I.J.K.L.M.N.. a a a . ",
". * & % $ # @ + a.b.b.F.h.h.i.j.j.k.G.B.B.C.D.D.E.H.I.J.K.L.M.N.N.O.P.P.Q.R.R.. a a a . ",
". a.b.b.F.h.h.i.j.j.k.G.B.B.C.D.D.E.H.I.J.K.L.M.N.N.O.P.P.Q.R.R.S.T.T.U.V.W.W.. a a a . ",
". j.j.k.G.B.B.C.D.D.E.H.I.J.K.L.M.N.N.O.P.P.Q.R.R.S.T.T.U.V.W.W.X.Y.Z.`. +.+++. a a a . ",
". D.D.E.H.I.J.K.L.M.N.N.O.P.P.Q.R.R.S.T.T.U.V.W.W.X.Y.Z.`. +.+++@+#+$+%+%+&+*+. a a a . ",
". . . . . . . . . . . . . . . . . . . . . . . . . . . . . . . . . . . . . . . . a a a . ",
"  . =+=+=+=+=+=+=+=+=+=+=+=+=+=+=+=+=+=+=+=+=+=+=+=+=+=+=+=+=+=+=+=+=+=+=+=+=+=+. a a . ",
"    . =+=+=+=+=+=+=+=+=+=+=+=+=+=+=+=+=+=+=+=+=+=+=+=+=+=+=+=+=+=+=+=+=+=+=+=+=+=+. a . ",
"      . =+=+=+=+=+=+=+=+=+=+=+=+=+=+=+=+=+=+=+=+=+=+=+=+=+=+=+=+=+=+=+=+=+=+=+=+=+=+. . ",
"        . . . . . . . . . . . . . . . . . . . . . . . . . . . . . . . . . . . . . . . . "};
