/* XPM */
static char * AppIcon_xpm[] = {
"42 28 192 2",
"  	c None",
". 	c #000000",
"+ 	c #05B316",
"@ 	c #05B317",
"# 	c #05B417",
"$ 	c #05B517",
"% 	c #04B518",
"& 	c #04B618",
"* 	c #04B718",
"= 	c #04B819",
"- 	c #04B919",
"; 	c #04BA19",
"> 	c #04BB1A",
", 	c #04BC1A",
"' 	c #04BD1B",
") 	c #03BE1B",
"! 	c #03BF1B",
"~ 	c #03C01C",
"{ 	c #03C11C",
"] 	c #03C21C",
"^ 	c #03C21D",
"/ 	c #03C31D",
"( 	c #03C41D",
"_ 	c #03C41E",
": 	c #03C51E",
"< 	c #03C61E",
"[ 	c #02C61E",
"} 	c #02C71F",
"| 	c #02C81F",
"1 	c #02C91F",
"2 	c #02CA20",
"3 	c #02CB20",
"4 	c #02CC21",
"5 	c #02CD21",
"6 	c #02CE21",
"7 	c #02CF22",
"8 	c #01CF22",
"9 	c #01D022",
"0 	c #01D122",
"a 	c #01D123",
"b 	c #01D223",
"c 	c #01D323",
"d 	c #01D324",
"e 	c #01D424",
"f 	c #01D524",
"g 	c #01D625",
"h 	c #01D725",
"i 	c #00D725",
"j 	c #00D825",
"k 	c #00D926",
"l 	c #00DA26",
"m 	c #00DB27",
"n 	c #00DC27",
"o 	c #00DD27",
"p 	c #00DD28",
"q 	c #00DE28",
"r 	c #00DF28",
"s 	c #018816",
"t 	c #001703",
"u 	c #00470C",
"v 	c #008E18",
"w 	c #00A91D",
"x 	c #00490D",
"y 	c #006211",
"z 	c #00BA1E",
"A 	c #005D0F",
"B 	c #005E0F",
"C 	c #008C18",
"D 	c #008D18",
"E 	c #002F08",
"F 	c #008F18",
"G 	c #001804",
"H 	c #003008",
"I 	c #00C121",
"J 	c #00921A",
"K 	c #00931A",
"L 	c #00C523",
"M 	c #006311",
"N 	c #003108",
"O 	c #009019",
"P 	c #00480C",
"Q 	c #005F10",
"R 	c #00AA1D",
"S 	c #00AA1E",
"T 	c #007B15",
"U 	c #004A0D",
"V 	c #001904",
"W 	c #007915",
"X 	c #00C221",
"Y 	c #00A71C",
"Z 	c #007614",
"` 	c #007514",
" .	c #00DF29",
"..	c #006111",
"+.	c #00BA1F",
"@.	c #007412",
"#.	c #00941A",
"$.	c #00C422",
"%.	c #007814",
"&.	c #002E07",
"*.	c #00A81C",
"=.	c #00440B",
"-.	c #00590D",
";.	c #01B11B",
">.	c #00B81E",
",.	c #01B21B",
"'.	c #016F11",
").	c #014109",
"!.	c #008C17",
"~.	c #00A31A",
"{.	c #001603",
"].	c #00430A",
"^.	c #028214",
"/.	c #028213",
"(.	c #001503",
"_.	c #013F09",
":.	c #04BE1B",
"<.	c #018614",
"[.	c #00420A",
"}.	c #01570C",
"|.	c #01550C",
"1.	c #013D08",
"2.	c #002C06",
"3.	c #01560C",
"4.	c #02AB18",
"5.	c #02AA18",
"6.	c #027E12",
"7.	c #013E08",
"8.	c #038E12",
"9.	c #03780F",
"0.	c #05B216",
"a.	c #05B116",
"b.	c #03A617",
"c.	c #02660D",
"d.	c #012805",
"e.	c #02630C",
"f.	c #03740E",
"g.	c #05AF15",
"h.	c #05AE15",
"i.	c #05AD14",
"j.	c #06AC14",
"k.	c #028012",
"l.	c #027F12",
"m.	c #027D11",
"n.	c #027C11",
"o.	c #027B10",
"p.	c #027A10",
"q.	c #03A215",
"r.	c #027810",
"s.	c #049F14",
"t.	c #03760E",
"u.	c #038910",
"v.	c #03870F",
"w.	c #03730D",
"x.	c #04720D",
"y.	c #04720C",
"z.	c #059710",
"A.	c #06AA13",
"B.	c #06A913",
"C.	c #06A812",
"D.	c #06A712",
"E.	c #05B015",
"F.	c #06AB13",
"G.	c #06A612",
"H.	c #06A611",
"I.	c #06A511",
"J.	c #06A411",
"K.	c #07A410",
"L.	c #07A310",
"M.	c #07A210",
"N.	c #07A10F",
"O.	c #07A00F",
"P.	c #079F0F",
"Q.	c #079E0E",
"R.	c #079D0E",
"S.	c #079C0D",
"T.	c #089B0D",
"U.	c #089A0D",
"V.	c #08990C",
"W.	c #08980C",
"X.	c #08970C",
"Y.	c #08970B",
"Z.	c #08960B",
"`.	c #08950B",
" +	c #08950A",
".+	c #08940A",
"++	c #08930A",
"@+	c #09930A",
"#+	c #099209",
"$+	c #099109",
"%+	c #099009",
"&+	c #098F08",
". . . . . . . . . . . . . . . . . . . . . . . . . . . . . . . . . . . . . . . . . . ",
". . . . . . . . . . . . . . . . . . . . . . . . . . . . . . . . . . . . . . . . . . ",
". . + @ # $ % & * * = - - ; > > , ' ) ) ! ~ ~ { ] ^ / ( _ : < [ } | | 1 2 2 3 4 . . ",
". . * = - - ; > > , ' ) ) ! ~ ~ { ] ^ / ( _ : < [ } | | 1 2 2 3 4 4 5 6 7 8 9 0 . . ",
". . , ' ) ) ! ~ ~ { ] ^ / ( _ : < [ } | | 1 2 2 3 4 4 5 6 7 8 9 0 a b c d e f f . . ",
". . { ] ^ / ( _ : < [ } | | 1 2 2 3 4 4 5 6 7 8 9 0 a b c d e f f g h i j k k l . . ",
". . < [ } | | 1 2 2 3 4 4 5 6 7 8 9 0 a b c d e f f g h i j k k l m m n o p q r . . ",
". . 2 3 s . . . . . . . t b t . . u f v . . . k w . . . x o y . . . . . . . n m . . ",
". . 8 9 z A . B C D v E u h F G H I l J . x K p L M . M L p x N J G G O H P i h . . ",
". . e f f Q . i j k k R S m n T . L r U V q p o n W . X k k P Y h . u f Z ` c b . . ",
". . k k l x G n o p q r  .r q p V y ..G X k k j i u . f f e d c +.. @.9 8 8 6 5 . . ",
". . p q r V N #.K $.n m m l k k %.G . Y f f e d c &.&.0 9 8 8 6 s . s 3 2 2 1 | . . ",
". . o n m . . . . *.i h g f f e C . A a 0 9 8 8 6 . =.4 3 2 2 1 -.. ;.[ < : _ ( . . ",
". . j i F . v f e d c b a 0 9 >.t &.t 4 4 3 2 2 ,.. '.} [ < : _ ).. ^ ] { ~ ~ ! . . ",
". . d c !.. ~.9 8 8 6 5 4 4 3 {.].,.. '.} [ < : ^.. /.^ ] { ~ ~ (._.:.' , > > ; . . ",
". . 8 6 =.. 4 3 2 2 <.,.| } [.{.: _ }.{.^ ] { ~ |.. ) :.' , > > . 1.- = * * & % . . ",
". . 2 1 2.{.} [ < : . /./ 3.{.4.~ ~ 5.. 6.' , > 7.. - - = * * 8.. 9.# @ + 0.a.a.. . ",
". . : . . . . . . . . ! . . . 7.> b.. . . c.* . . . d.# @ + e.. . . f.g.h.i.i.j.. . ",
". . ~ k.l.6.6.6.m.n.n.; o.o.p.8.* q.r.9.9.s.+ t.t.t.u.g.g.h.v.w.x.y.z.A.B.C.C.D.. . ",
". . > > ; - - = * * & % $ # @ + 0.a.a.E.g.g.h.i.i.j.F.A.A.B.C.C.D.G.H.I.J.K.L.M.. . ",
". . * & % $ # @ + 0.a.a.E.g.g.h.i.i.j.F.A.A.B.C.C.D.G.H.I.J.K.L.M.M.N.O.O.P.Q.Q.. . ",
". . 0.a.a.E.g.g.h.i.i.j.F.A.A.B.C.C.D.G.H.I.J.K.L.M.M.N.O.O.P.Q.Q.R.S.S.T.U.V.V.. . ",
". . i.i.j.F.A.A.B.C.C.D.G.H.I.J.K.L.M.M.N.O.O.P.Q.Q.R.S.S.T.U.V.V.W.X.Y.Z.`. +.+. . ",
". . C.C.D.G.H.I.J.K.L.M.M.N.O.O.P.Q.Q.R.S.S.T.U.V.V.W.X.Y.Z.`. +.+++@+#+$+$+%+&+. . ",
". . . . . . . . . . . . . . . . . . . . . . . . . . . . . . . . . . . . . . . . . . ",
". . . . . . . . . . . . . . . . . . . . . . . . . . . . . . . . . . . . . . . . . . ",
"                                                                                    ",
"                                                                                    "};
